<?xml version="1.0" encoding="UTF-8"?>
<svg version="1.1" xmlns="http://www.w3.org/2000/svg" width="50" height="50">
<path d="M0 0 C-0.57380172 3.66377743 -1.97269658 5.32767225 -4.59765625 7.890625 C-5.31630859 8.59960938 -6.03496094 9.30859375 -6.77539062 10.0390625 C-7.53013672 10.76867188 -8.28488281 11.49828125 -9.0625 12.25 C-9.82111328 12.99507812 -10.57972656 13.74015625 -11.36132812 14.5078125 C-13.23432207 16.34546694 -15.11395611 18.17575724 -17 20 C-15.61263623 23.14991294 -14.00943764 25.19935814 -11.5234375 27.56640625 C-10.853125 28.21673828 -10.1828125 28.86707031 -9.4921875 29.53710938 C-8.07469745 30.89313999 -6.6554091 32.24729316 -5.234375 33.59960938 C-4.56664063 34.24865234 -3.89890625 34.89769531 -3.2109375 35.56640625 C-2.59524902 36.15365479 -1.97956055 36.74090332 -1.34521484 37.34594727 C0 39 0 39 0 42 C-5.82123378 41.12784342 -9.32848822 36.22472504 -13.3125 32.25 C-14.16134766 31.43789063 -15.01019531 30.62578125 -15.88476562 29.7890625 C-16.68205078 28.99757813 -17.47933594 28.20609375 -18.30078125 27.390625 C-19.03466064 26.66907227 -19.76854004 25.94751953 -20.5246582 25.20410156 C-22 23 -22 23 -21.97680664 20.50219727 C-20.80047737 17.48890091 -19.35882374 15.85691902 -17.0703125 13.57421875 C-16.27496094 12.77822266 -15.47960937 11.98222656 -14.66015625 11.16210938 C-13.82355469 10.34548828 -12.98695312 9.52886719 -12.125 8.6875 C-11.29613281 7.85154297 -10.46726562 7.01558594 -9.61328125 6.15429688 C-3.39367347 0 -3.39367347 0 0 0 Z " fill="#191919" transform="translate(36,4)"/>
</svg>
